<?xml version="1.0" encoding="utf-8"?>
<svg xmlns="http://www.w3.org/2000/svg" viewBox="51.798 35.586 53.837 55.414" width="53.837px" height="55.414px">
  <path style="stroke: rgb(0, 0, 0); fill: rgba(255, 255, 255, 0.467); stroke-width: 2px; transform-origin: 79.728px 65.8286px;" d="M 75.401 84.382 L 80.593 77.842 C 92.358 77.842 99.712 65.106 93.83 54.917 C 87.947 44.728 73.24 44.728 67.356 54.917 C 65.078 58.864 64.452 63.111 67.117 69.995 L 63.556 77.321 L 75.401 84.382 Z" transform="matrix(0.86602509, -0.5, 0.5, 0.86602509, 0.00000477, 0.00000961)"/>
  <rect x="73.331" y="86.555" width="9.996" height="4.445" style="fill: rgb(216, 216, 216); stroke: rgb(0, 0, 0); stroke-width: 2px;" transform="matrix(1, 0, 0, 1, -7.105427357601002e-15, 0)"/>
  <line style="fill: rgb(216, 216, 216); stroke: rgb(0, 0, 0); stroke-width: 2px;" x1="78.639" y1="42.73" x2="78.639" y2="35.586" transform="matrix(1, 0, 0, 1, -7.105427357601002e-15, 0)"/>
  <line style="fill: rgb(216, 216, 216); stroke: rgb(0, 0, 0); stroke-width: 2; transform-origin: 102.063px 62.165px;" x1="98.491" y1="62.165" x2="105.635" y2="62.165"/>
  <line style="fill: rgb(216, 216, 216); stroke: rgb(0, 0, 0); stroke-width: 2; transform-origin: 55.37px 62.569px;" x1="51.798" y1="62.569" x2="58.942" y2="62.569" transform="matrix(1, 0, 8e-8, 1, -0.00000509, 0)"/>
  <line style="fill: rgb(216, 216, 216); stroke: rgb(0, 0, 0); stroke-width: 2px; transform-origin: 85.107px 40.054px;" x1="84.183" y1="43.504" x2="86.032" y2="36.604"/>
  <line style="fill: rgb(216, 216, 216); stroke: rgb(0, 0, 0); stroke-width: 2px; transform-origin: 90.738px 42.52px;" x1="89.813" y1="45.97" x2="91.662" y2="39.07" transform="matrix(0.96592611, 0.25881901, -0.25881901, 0.96592611, 0.00000663, 0.00000138)"/>
  <line style="fill: rgb(216, 216, 216); stroke: rgb(0, 0, 0); stroke-width: 2px; transform-origin: 95.463px 46.208px;" x1="94.538" y1="49.658" x2="96.387" y2="42.758" transform="matrix(0.86602509, 0.5, -0.5, 0.86602509, 0.00000833, -6.8e-7)"/>
  <line style="fill: rgb(216, 216, 216); stroke: rgb(0, 0, 0); stroke-width: 2; transform-origin: 99.018px 50.944px;" x1="98.093" y1="54.394" x2="99.942" y2="47.494" transform="matrix(0.70710701, 0.70710701, -0.70710701, 0.70710701, -0.0000011, -0.00000112)"/>
  <line style="fill: rgb(216, 216, 216); stroke: rgb(0, 0, 0); stroke-width: 2; transform-origin: 101.305px 56.577px;" x1="100.38" y1="60.027" x2="102.229" y2="53.127" transform="matrix(0.5, 0.86602509, -0.86602509, 0.5, 0.0000062, 0.00000513)"/>
  <line style="fill: rgb(216, 216, 216); stroke: rgb(0, 0, 0); stroke-width: 2; transform-origin: 72.611px 39.863px;" x1="71.687" y1="36.413" x2="73.536" y2="43.313" transform="matrix(-1, 0, 0, -1, 0.00001526, 0)"/>
  <line style="fill: rgb(216, 216, 216); stroke: rgb(0, 0, 0); stroke-width: 2; transform-origin: 66.98px 42.329px;" x1="66.055" y1="38.879" x2="67.904" y2="45.779" transform="matrix(-0.96592611, 0.25881901, -0.25881901, -0.96592611, -0.00000164, 0.00000452)"/>
  <line style="fill: rgb(216, 216, 216); stroke: rgb(0, 0, 0); stroke-width: 2; transform-origin: 62.255px 46.017px;" x1="61.33" y1="42.567" x2="63.179" y2="49.467" transform="matrix(-0.86602509, 0.5, -0.5, -0.86602509, 0.00001188, 0.00001254)"/>
  <line style="fill: rgb(216, 216, 216); stroke: rgb(0, 0, 0); stroke-width: 2; transform-origin: 58.7px 50.753px;" x1="57.775" y1="47.303" x2="59.624" y2="54.203" transform="matrix(-0.70710701, 0.70710701, -0.70710701, -0.70710701, -1.6e-7, -0.00000255)"/>
  <line style="fill: rgb(216, 216, 216); stroke: rgb(0, 0, 0); stroke-width: 2; transform-origin: 56.413px 56.386px;" x1="55.488" y1="52.936" x2="57.337" y2="59.836" transform="matrix(-0.5, 0.86602509, -0.86602509, -0.5, 0.00000103, 0.00000174)"/>
  <line style="fill: rgb(216, 216, 216); stroke: rgb(0, 0, 0); stroke-width: 2; transform-origin: 61.74px 78.334px;" x1="60.815" y1="81.784" x2="62.664" y2="74.884" transform="matrix(-0.86602509, -0.5, 0.5, -0.86602509, 0.0000075, 0.00000611)"/>
  <line style="fill: rgb(216, 216, 216); stroke: rgb(0, 0, 0); stroke-width: 2; transform-origin: 58.185px 73.598px;" x1="57.26" y1="77.048" x2="59.109" y2="70.148" transform="matrix(-0.70710701, -0.70710701, 0.70710701, -0.70710701, -0.00000176, -0.00001441)"/>
  <line style="fill: rgb(216, 216, 216); stroke: rgb(0, 0, 0); stroke-width: 2; transform-origin: 55.898px 67.965px;" x1="54.973" y1="71.415" x2="56.822" y2="64.515" transform="matrix(-0.5, -0.86602509, 0.86602509, -0.5, -0.0000039, 1.1e-7)"/>
  <line style="fill: rgb(216, 216, 216); stroke: rgb(0, 0, 0); stroke-width: 2; transform-origin: 95.334px 78.772px;" x1="94.409" y1="75.322" x2="96.258" y2="82.222" transform="matrix(0.86602509, -0.5, 0.5, 0.86602509, 0.00000348, 0.00000724)"/>
  <line style="fill: rgb(216, 216, 216); stroke: rgb(0, 0, 0); stroke-width: 2; transform-origin: 98.889px 74.036px;" x1="97.964" y1="70.586" x2="99.813" y2="77.486" transform="matrix(0.70710701, -0.70710701, 0.70710701, 0.70710701, -0.00000178, 0.00000449)"/>
  <line style="fill: rgb(216, 216, 216); stroke: rgb(0, 0, 0); stroke-width: 2; transform-origin: 101.176px 68.403px;" x1="100.251" y1="64.953" x2="102.1" y2="71.853" transform="matrix(0.5, -0.86602509, 0.86602509, 0.5, 0.00000851, -0.0000013)"/>
</svg>